# xmcd
#
# Track frame offsets: 
#        150
#        82158
#        107458
#        160200
#
# Disc length: 2391 seconds
#
# Revision: 0
# Processed by: cddbd v1.5.2PL0 Copyright (c) Steve Scherf et al.
# Submitted via: ExactAudioCopy v0.99pb3
#
DISCID=27095504
DTITLE=Allman Brothers Band - Finger Lakes PAC - Canandaigua, NY - 22.
DTITLE=7.05 Disc 2
DYEAR=2005
DGENRE=Southern Rock
TTITLE0=Egypt
TTITLE1=Good Clean Fun
TTITLE2=Stormy Monday   
TTITLE3=Midnight Rider
EXTD=
EXTT0=
EXTT1=
EXTT2=
EXTT3=
PLAYORDER=
